<?xml version="1.0" encoding="utf-8"?>
<!-- Generator: Adobe Illustrator 15.0.0, SVG Export Plug-In . SVG Version: 6.00 Build 0)  -->
<!DOCTYPE svg PUBLIC "-//W3C//DTD SVG 1.1//EN" "http://www.w3.org/Graphics/SVG/1.1/DTD/svg11.dtd">
<svg version="1.1" id="Layer_1" xmlns="http://www.w3.org/2000/svg" xmlns:xlink="http://www.w3.org/1999/xlink" x="0px" y="0px"
	 width="50px" height="50px" viewBox="75 34 50 50" enable-background="new 75 34 50 50" xml:space="preserve">
<g>
	<g>
		<path fill="#555555" d="M120.917,73.606l-18.11-31.331c-0.458-0.792-1.28-1.276-2.166-1.276c-0.887,0-1.708,0.484-2.167,1.276
			L80.363,73.606c-0.471,0.815-0.485,1.831-0.037,2.661c0.449,0.827,1.29,1.34,2.203,1.34h36.222c0.912,0,1.754-0.513,2.202-1.34
			C121.402,75.438,121.389,74.422,120.917,73.606z M100.654,51.837c1.04,0,1.92,0.612,1.92,1.697c0,3.31-0.373,8.068-0.373,11.378
			c0,0.862-0.907,1.223-1.547,1.223c-0.854,0-1.573-0.36-1.573-1.223c0-3.311-0.374-8.068-0.374-11.378
			C98.707,52.45,99.561,51.837,100.654,51.837z M100.682,72.34c-1.174,0-2.055-1.001-2.055-2.142c0-1.168,0.88-2.143,2.055-2.143
			c1.093,0,2.026,0.975,2.026,2.143C102.708,71.339,101.774,72.34,100.682,72.34z"/>
	</g>
</g>
</svg>
