<?xml version="1.0" encoding="utf-8"?>
<!-- Generator: Adobe Illustrator 23.0.6, SVG Export Plug-In . SVG Version: 6.00 Build 0)  -->
<svg version="1.1" id="Layer_1" xmlns="http://www.w3.org/2000/svg" xmlns:xlink="http://www.w3.org/1999/xlink" x="0px" y="0px"
	 viewBox="0 0 87.87 53.44" style="enable-background:new 0 0 87.87 53.44;" xml:space="preserve">
<style type="text/css">
	.st0{fill:#808080;}
</style>
<path class="st0" d="M19.1,46.25v7.18h48.67v-7.18c0-1.58-0.7-3.05-1.92-4.05l0,0c-5.83-4.78-11.99-7.99-13.74-8.86l-0.3-0.15V24
	l0.2-0.17c1.13-0.92,1.78-2.3,1.78-3.77v-9.8c0-5.14-4.17-9.31-9.31-9.31h-2.09c-5.14,0-9.31,4.17-9.31,9.31v9.8
	c0,1.47,0.65,2.85,1.78,3.77l0.2,0.17v9.19l-0.3,0.15c-1.77,0.88-7.97,4.13-13.74,8.86C19.79,43.21,19.1,44.68,19.1,46.25z
	 M21.59,42.93c6.29-5.16,13.12-8.54,13.89-8.91c0.3-0.16,0.5-0.47,0.5-0.83v-9.71l-0.21-0.14c-1.11-0.73-1.77-1.96-1.77-3.29v-9.79
	c0-4.62,3.75-8.38,8.38-8.38h2.09c4.62,0,8.38,3.75,8.38,8.38v9.8c0,1.33-0.66,2.56-1.77,3.29l-0.21,0.14v9.71
	c0,0.35,0.2,0.67,0.52,0.83c0.76,0.36,7.58,3.74,13.87,8.9l0.02,0.02c0.98,0.81,1.55,2.01,1.55,3.3v6.25h-46.8v-6.25
	C20.04,44.95,20.6,43.75,21.59,42.93z"/>
<path class="st0" d="M68.29,16.04c3.32,0,6.01,2.7,6.01,6.01v7.12c0,0.94-0.47,1.81-1.26,2.33l-0.18,0.12v7.08
	c0,0.28,0.16,0.53,0.38,0.63c0.93,0.45,5.67,2.86,10.04,6.43l0.03,0.03c0.7,0.57,1.11,1.43,1.13,2.35v4.48H70.38v0.8h14.85v-5.29
	c-0.02-1.16-0.54-2.24-1.42-2.96l0,0c-4.11-3.37-8.62-5.74-9.9-6.39l-0.26-0.13v-6.61l0.17-0.14c0.81-0.68,1.28-1.68,1.28-2.75
	v-7.12c0-3.75-3.06-6.81-6.81-6.81h-1.53c-3.75,0-6.81,3.06-6.81,6.81v7.12c0,1.05,0.46,2.06,1.28,2.75l0.17,0.14l-0.01,5.01
	c0.27,0.18,0.55,0.36,0.8,0.55v-5.98l-0.18-0.12c-0.79-0.52-1.26-1.4-1.26-2.33v-7.12c0-3.32,2.7-6.01,6.01-6.01
	C66.74,16.04,68.29,16.04,68.29,16.04z"/>
<path class="st0" d="M27.31,29.17v-7.12c0-3.75-3.06-6.81-6.81-6.81h-1.53c-3.75,0-6.81,3.06-6.81,6.81v7.12
	c0,1.05,0.46,2.06,1.28,2.75l0.17,0.14v6.59l-0.26,0.13c-1.29,0.65-5.79,3.02-9.9,6.39l0,0C2.54,45.88,2.02,46.98,2,48.13v5.28
	h14.85v-0.8H2.8v-4.47c0.02-0.92,0.43-1.78,1.13-2.36l0.04-0.03c4.37-3.57,9.11-5.97,10.01-6.42c0.25-0.1,0.41-0.36,0.41-0.64v-7.08
	l-0.18-0.12c-0.79-0.52-1.26-1.4-1.26-2.33v-7.12c0-3.32,2.7-6.01,6.01-6.01h1.53c3.32,0,6.01,2.7,6.01,6.01v7.12
	c0,0.94-0.47,1.81-1.26,2.33l-0.18,0.12v5.98c0.27-0.18,0.54-0.36,0.8-0.55l-0.01-5.01l0.17-0.14
	C26.84,31.22,27.31,30.22,27.31,29.17z"/>
</svg>
