<?xml version="1.0" encoding="utf-8"?>
<!-- Generator: Adobe Illustrator 23.0.6, SVG Export Plug-In . SVG Version: 6.00 Build 0)  -->
<svg version="1.1" id="Layer_1" xmlns="http://www.w3.org/2000/svg" xmlns:xlink="http://www.w3.org/1999/xlink" x="0px" y="0px"
	 viewBox="0 0 87.87 53.44" style="enable-background:new 0 0 87.87 53.44;" xml:space="preserve">
<style type="text/css">
	.st0{fill:#808080;}
</style>
<g>
	<path class="st0" d="M64.1,10.42c0.27,0,0.49-0.23,0.49-0.5l-0.07-5.45c0-0.27-0.22-0.49-0.49-0.49c-0.27,0-0.49,0.23-0.49,0.5
		l0.05,4.22l-1.04-0.96C57.55,2.85,50.98,0.17,44,0.17c-0.1,0-0.21,0-0.31,0C36.59,0.26,29.95,3.1,24.99,8.16
		c-3.55,3.65-5.97,8.19-7,13.12c-1,4.83-0.66,9.82,1,14.43c0.09,0.24,0.31,0.39,0.65,0.29c0.1-0.04,0.2-0.13,0.25-0.25
		c0.06-0.12,0.06-0.25,0.02-0.37c-3.34-9.3-1.12-19.47,5.78-26.54c4.77-4.88,11.16-7.61,18-7.69c6.82-0.06,13.28,2.51,18.17,7.29
		l1.09,1.01L58.64,9.5c-0.27,0-0.49,0.23-0.49,0.5c0.01,0.27,0.22,0.48,0.49,0.48L64.1,10.42z"/>
	<path class="st0" d="M43.97,53.26h0.04c7.22,0,13.96-2.83,19-7.98c3.55-3.62,5.97-8.16,7-13.12c1-4.83,0.66-9.82-1-14.43
		c-0.09-0.26-0.38-0.39-0.62-0.3c-0.12,0.04-0.22,0.14-0.28,0.25c-0.06,0.12-0.06,0.25-0.02,0.37c3.34,9.3,1.12,19.47-5.78,26.54
		c-4.76,4.88-11.16,7.61-18,7.69c-6.83,0.08-13.29-2.5-18.17-7.27L25.05,44l4.32-0.05c0.27,0,0.49-0.23,0.49-0.5
		c0-0.27-0.22-0.48-0.49-0.48l-5.46,0.07c-0.14,0-0.27,0.06-0.36,0.15c-0.09,0.09-0.14,0.21-0.14,0.34l0.07,5.46
		c0.01,0.27,0.22,0.49,0.49,0.49c0.27,0,0.49-0.23,0.49-0.5l-0.05-4.22l1.04,0.96C30.42,50.58,37,53.26,43.97,53.26z"/>
</g>
</svg>
