<?xml version="1.0" encoding="utf-8"?>
<!-- Generator: Adobe Illustrator 23.0.6, SVG Export Plug-In . SVG Version: 6.00 Build 0)  -->
<svg version="1.1" id="Layer_1" xmlns="http://www.w3.org/2000/svg" xmlns:xlink="http://www.w3.org/1999/xlink" x="0px" y="0px"
	 viewBox="0 0 87.87 53.44" style="enable-background:new 0 0 87.87 53.44;" xml:space="preserve">
<style type="text/css">
	.st0{fill:#808080;}
</style>
<path class="st0" d="M40.02,39.93c-1.39,0-2.84,0-4.26,0.01l-0.14,0v0.89h0.15c0.45,0,0.89,0,1.34,0c1.01,0,2.02,0,3.03-0.01l0.14,0
	v-0.89H40.02z"/>
<path class="st0" d="M62.19,49.78c-0.41,0-0.75,0.34-0.75,0.75c0,0.41,0.34,0.75,0.75,0.75s0.75-0.34,0.75-0.75
	C62.94,50.12,62.61,49.78,62.19,49.78z"/>
<path class="st0" d="M61.95,6.5c-0.75-3.72-2.89-5.93-6.78-6.13c-2.27-0.11-5.28,1.27-6.5,4.68c-3.15-1.26-6.1,1.09-6.12,4
	c-0.19,0.06-0.38,0.13-0.58,0.19l0,0c-0.94,0.28-1.53,0.82-1.82,1.14c-0.56,0.66-0.93,1.41-0.97,2.3c-0.1,2.33,1.62,4.12,3.95,4.12
	c6.87,0,13.73,0,20.6,0c0.38,0,0.76-0.02,1.13-0.09c3.53-0.67,5.39-4.65,3.63-7.78C68.36,8.68,65.96,5.12,61.95,6.5z M64.6,15.77
	c-0.32,0.05-0.64,0.07-0.96,0.07c-3.39,0-6.77,0-10.16,0c-3.45,0-6.91,0.01-10.36,0c-1.76,0-3.05-1.36-2.97-3.07
	c0.07-1.44,1.25-2.63,2.68-2.73c0.65-0.04,0.73-0.15,0.71-0.81c-0.04-1.26,0.45-2.28,1.5-2.97c1.08-0.72,2.24-0.77,3.41-0.2
	c0.07,0.04,0.14,0.08,0.21,0.11c0.43,0.22,0.71,0.11,0.83-0.37c0.19-0.72,0.48-1.39,0.91-2c2.15-3.05,6.45-3.34,9-0.61
	c1.03,1.11,1.52,2.42,1.55,3.92c0.01,0.62,0.31,0.81,0.86,0.53c2.14-1.08,4.57-0.4,5.8,1.64C69.15,11.85,67.54,15.32,64.6,15.77z"/>
<path class="st0" d="M69.34,24.57h-7.88l0-4.01l0-3.89l-0.91-0.09l0,7.99h-5.51c-0.96,0-1.74,0.78-1.74,1.74v9.92H15.5l0-23.86
	c0-1.18,0.43-1.62,1.6-1.62c7.9,0,15.8,0,23.69,0c0.26-0.29,0.59-0.6,1.02-0.91c-8.27,0-16.54,0-24.81,0
	c-1.56,0-2.42,0.87-2.42,2.45c0,9.91,0,19.82,0,29.73c0,1.73,0.85,2.57,2.59,2.57l15.06,0c-0.12,0.34-0.23,0.68-0.34,1.01
	c-0.33,0.95-0.63,1.85-0.91,2.78c-0.16,0.54-0.34,0.79-0.95,0.74c-0.67-0.06-1.28,0.27-1.72,0.91c-0.48,0.7-0.43,1.46-0.38,2.19
	c0.01,0.14,0.02,0.28,0.03,0.41l0.01,0.14h20.22v-1.05c0-1.79-0.69-2.51-2.54-2.65c-0.14-0.01-0.32-0.1-0.35-0.15
	c-0.41-1.17-0.81-2.33-1.22-3.56l-0.26-0.78l9.49,0v6.78c0,0.96,0.78,1.73,1.74,1.73h14.29c0.96,0,1.74-0.78,1.74-1.73V26.3
	C71.07,25.35,70.3,24.57,69.34,24.57z M45.59,49.99c0.6,0,1.02,0.14,1.29,0.41c0.28,0.29,0.4,0.76,0.38,1.44H28.88
	c-0.06-0.73,0.03-1.18,0.28-1.46c0.25-0.28,0.69-0.4,1.41-0.4C35.58,49.99,40.59,49.99,45.59,49.99z M44.09,48.25l0.27,0.79H31.71
	l0.27-0.82c0.39-1.17,0.76-2.28,1.15-3.39c0.03-0.09,0.23-0.24,0.33-0.24c2.75-0.02,5.74-0.02,9.16-0.01c0.09,0,0.24,0.1,0.26,0.15
	C43.29,45.89,43.68,47.04,44.09,48.25z M53.31,43.65l-27.21,0c-2.98,0-5.97,0-8.95,0c-1.21,0-1.64-0.43-1.64-1.65v-4.78h37.8V43.65z
	 M70.23,51.35c0,0.49-0.4,0.89-0.89,0.89H55.04c-0.49,0-0.89-0.4-0.89-0.89V48.8h16.07V51.35z M70.23,47.97H54.16V28.94h16.07V47.97
	z M70.23,28.11H54.16v-1.8c0-0.49,0.4-0.89,0.89-0.89h14.29c0.49,0,0.89,0.4,0.89,0.89V28.11z"/>
</svg>
